# Blender v2.93.5 OBJ File: ''
# www.blender.org
mtllib /meshes/brick_cubes.mtl
o Cube
v 1.000000 1.000000 -2.146284
v 1.000000 -1.000000 -2.146284
v 1.000000 1.000000 -0.146284
v 1.000000 -1.000000 -0.146284
v -1.000000 1.000000 -2.146284
v -1.000000 -1.000000 -2.146284
v -1.000000 1.000000 -0.146284
v -1.000000 -1.000000 -0.146284
vt -0.500000 1.500000
vt 1.500000 -0.500000
vt 1.500000 1.500000
vt 1.500000 1.500000
vt -0.500000 -0.500000
vt 1.500000 -0.500000
vt -0.500000 1.500000
vt 1.500000 -0.500000
vt 1.500000 1.500000
vt -0.500000 1.500000
vt -0.500000 -0.500000
vt 1.500000 -0.500000
vt -0.500000 -0.500000
vt -0.500000 -0.500000
vt 1.500000 1.500000
vt -0.500000 1.500000
vn 0.0000 1.0000 0.0000
vn 0.0000 0.0000 1.0000
vn -1.0000 0.0000 0.0000
vn 0.0000 -1.0000 0.0000
vn 1.0000 0.0000 0.0000
vn 0.0000 0.0000 -1.0000
usemtl Bricks
s off
f 5/1/1 3/2/1 1/3/1
f 3/4/2 8/5/2 4/6/2
f 7/7/3 6/8/3 8/5/3
f 2/9/4 8/5/4 6/10/4
f 1/3/5 4/11/5 2/12/5
f 5/1/6 2/12/6 6/13/6
f 5/1/1 7/14/1 3/2/1
f 3/4/2 7/7/2 8/5/2
f 7/7/3 5/15/3 6/8/3
f 2/9/4 4/6/4 8/5/4
f 1/3/5 3/16/5 4/11/5
f 5/1/6 1/3/6 2/12/6
o Cube.001_Cube.002
v 1.000000 1.000000 0.244961
v 1.000000 -1.000000 0.244961
v 1.000000 1.000000 2.244961
v 1.000000 -1.000000 2.244961
v -1.000000 1.000000 0.244961
v -1.000000 -1.000000 0.244961
v -1.000000 1.000000 2.244961
v -1.000000 -1.000000 2.244961
vt -0.500000 1.500000
vt 1.500000 -0.500000
vt 1.500000 1.500000
vt 1.500000 1.500000
vt -0.500000 -0.500000
vt 1.500000 -0.500000
vt -0.500000 1.500000
vt 1.500000 -0.500000
vt 1.500000 1.500000
vt -0.500000 1.500000
vt -0.500000 -0.500000
vt 1.500000 -0.500000
vt -0.500000 -0.500000
vt -0.500000 -0.500000
vt 1.500000 1.500000
vt -0.500000 1.500000
vn 0.0000 1.0000 0.0000
vn 0.0000 0.0000 1.0000
vn -1.0000 0.0000 0.0000
vn 0.0000 -1.0000 0.0000
vn 1.0000 0.0000 0.0000
vn 0.0000 0.0000 -1.0000
usemtl Bricks.001
s off
f 13/17/7 11/18/7 9/19/7
f 11/20/8 16/21/8 12/22/8
f 15/23/9 14/24/9 16/21/9
f 10/25/10 16/21/10 14/26/10
f 9/19/11 12/27/11 10/28/11
f 13/17/12 10/28/12 14/29/12
f 13/17/7 15/30/7 11/18/7
f 11/20/8 15/23/8 16/21/8
f 15/23/9 13/31/9 14/24/9
f 10/25/10 12/22/10 16/21/10
f 9/19/11 11/32/11 12/27/11
f 13/17/12 9/19/12 10/28/12
